<svg width="53" height="32" viewBox="0 0 67 40" xmlns="http://www.w3.org/2000/svg" xmlns:xlink="http://www.w3.org/1999/xlink"><defs><path id="a" d="M21.742 21.468V.015H.032v21.453z"/><path id="c" d="M0 21.533h65.602V.081H0z"/></defs><g transform="translate(.73 9.09)" fill="none" fill-rule="evenodd"><g transform="translate(43.86 .066)"><mask id="b" fill="#fff"><use xlink:href="#a"/></mask><path d="M10.858 1.69c-5.057.004-9.145 4.052-9.148 9.06-.003 5.024 4.098 9.079 9.175 9.07 5.064-.007 9.14-4.044 9.146-9.058.006-5.025-4.09-9.075-9.173-9.071m-1.78 19.65c-2.725-.43-5.251-1.976-6.899-4.158a10.693 10.693 0 0 1-2.113-5.58C-.384 5.94 3.656.942 9.345.124a10.943 10.943 0 0 1 7.97 2c2.305 1.686 3.789 4.177 4.283 6.955.533 2.988-.442 6.299-2.42 8.615-2.32 2.717-5.968 4.069-9.52 3.721a9.978 9.978 0 0 1-.58-.074" fill="#CA2527" mask="url(#b)"/></g><mask id="d" fill="#fff"><use xlink:href="#c"/></mask><path fill="#1F1D1C" mask="url(#d)" d="M0 16.634h2.301V5.012H0z"/><path d="M18.248 9.612c.774 0 1.507.01 2.24-.002.692-.01 1.387-.005 2.073-.076.741-.076 1.066-.462 1.061-1.124-.004-.72-.35-1.174-1.086-1.199-1.421-.047-2.845-.014-4.288-.014v2.415zm-.014 4.843c1.582 0 3.144.017 4.706-.008.65-.01 1.045-.351 1.165-.875.209-.904-.274-1.684-1.225-1.768-1.135-.1-2.28-.07-3.422-.092-.403-.008-.807-.001-1.224-.001v2.744zm-2.198-9.429c2.15 0 4.274-.032 6.395.013 1.119.024 2.155.378 2.84 1.335.767 1.07.787 2.237.257 3.4-.156.343-.508.6-.77.897 1.06.502 1.596 1.405 1.619 2.61.034 1.81-.992 2.997-2.812 3.26-.362.053-.73.085-1.096.087-2.135.008-4.271.004-6.433.004V5.026zm21.44.073v2.103c-.16 0-.318-.005-.474 0-1.37.046-2.757-.02-4.108.165-2.371.322-3.17 2.043-2.876 4.078.257 1.78 1.501 2.812 3.391 2.929.678.042 1.359.051 2.039.061.665.01 1.33.003 2.018.003v2.15c-.008.006-.03.038-.05.037-1.737-.046-3.49.024-5.21-.174-2.385-.275-4.011-2.032-4.346-4.4-.217-1.542-.084-3.024.727-4.4.948-1.611 2.424-2.416 4.244-2.532 1.529-.097 3.068-.02 4.645-.02" fill="#211F1E" mask="url(#d)"/><path d="M13.728 5.18v2.102c-.16 0-.318-.004-.476.001-1.33.047-2.675-.012-3.987.166-2.632.357-3.83 3.338-2.253 5.468.739.997 1.834 1.307 3.003 1.37 1.072.058 2.15.03 3.224.04.148.002.296 0 .473 0v2.176c-1.322 0-2.64.047-3.951-.02a7.154 7.154 0 0 1-2.1-.425c-2.04-.759-3.17-2.25-3.419-4.4-.161-1.388.027-2.706.75-3.92.952-1.598 2.426-2.42 4.249-2.538 1.473-.097 2.959-.02 4.487-.02" fill="#23201F" mask="url(#d)"/><path fill="#CA2827" mask="url(#d)" d="M55.606 13.304V8.348h3.27V6.709h-3.678V5.06h5.366v4.93h-3.282v1.636h3.286v4.938h-5.361v-1.607h3.672v-1.653z"/><path fill="#CA2527" mask="url(#d)" d="M50.597 6.684v1.631h3.297v4.983h-3.29v1.635h3.707v1.628H48.95v-4.915h3.27v-1.631h-3.27v-4.96h5.35v1.63z"/></g></svg>