<svg xmlns="http://www.w3.org/2000/svg" viewBox="0 0 1487.907 532.144" height="32" width="89"><defs><clipPath id="a"><path d="M0 399.108h1115.926V0H0z"/></clipPath></defs><path d="M0 532.143h1487.901V0H0z" fill="#ec0000"/><g clip-path="url(#a)" transform="matrix(1.33333 0 0 -1.33333 0 532.144)"><path d="M965.74 224.097c0-4.655-.563-10.297-1.41-13.26-3.667.425-7.335.565-11.708.565-3.808 0-7.616-.283-11.425-.846v-60.37h-15.516v70.526c6.63 2.257 17.773 3.948 26.518 3.948 4.796 0 10.156-.14 13.541-.563m-104.1-30.75h34.982c0 11.567-6.206 18.337-16.927 18.337-11.002 0-16.785-6.347-18.055-18.337m49.791-12.977h-49.508c1.974-12.553 9.308-18.619 23.131-18.619 8.464 0 17.07 1.834 24.826 5.361-.564-4.09-1.41-9.45-2.398-14.105-7.053-3.245-14.528-4.514-22.85-4.514-25.954 0-38.507 14.387-38.507 38.507 0 21.017 9.733 37.66 34.416 37.66 22.145 0 31.737-14.527 31.737-32.3 0-4.373-.282-7.899-.847-11.99m-93.378-13.822v43.443c-4.09.846-8.323 1.411-12.414 1.411-15.375 0-22.709-9.592-22.709-25.672 0-14.387 5.784-24.543 19.607-24.543 6.206 0 11.284 2.116 15.516 5.361m15.374 82.374v-98.737H819.18l-.845 9.027c-3.95-6.63-10.016-10.719-20.17-10.719-18.619 0-31.032 13.541-31.032 37.237 0 24.826 13.258 38.93 39.353 38.93 4.09 0 7.9-.422 11.567-1.128v23.274c4.795 1.693 10.295 2.116 15.374 2.116m-78.71-51.344v-47.393H739.2V194.9c0 11.142-3.668 16.503-19.184 16.503-3.667 0-8.04-.423-12.27-1.128v-60.089H692.23v70.527c9.873 2.397 20.735 3.948 28.21 3.948 25.954 0 34.276-10.013 34.276-27.082m-94.932-31.313v44.291c-3.243.563-6.77.846-11.142.846-16.08 0-23.556-9.874-23.556-25.672 0-14.387 5.784-24.543 19.606-24.543 6.065 0 11.003 1.974 15.092 5.078m15.517 54.447v-70.527h-14.247l-.845 8.463c-3.95-6.206-10.016-10.155-19.889-10.155-18.619 0-31.03 13.541-31.03 37.237 0 24.826 13.257 38.93 39.352 38.93 10.156 0 18.478-1.128 26.66-3.948m-83.226-58.96c4.514 0 8.746.846 12.131 2.115-.423-4.23-.988-9.028-1.834-13.117-4.232-1.693-8.745-2.257-13.117-2.257-15.093 0-24.685 6.912-24.685 24.12v74.052c4.796 1.552 10.72 2.257 15.517 2.257v-26.659h24.542c-.282-4.796-.704-9.169-1.41-13.258h-23.132v-34.559c0-9.168 4.513-12.695 11.988-12.695m-43.024 35.827v-47.393h-15.516V194.9c0 11.142-3.668 16.503-19.183 16.503-3.668 0-8.04-.423-12.272-1.128v-60.089h-15.515v70.527c9.873 2.397 20.734 3.948 28.21 3.948 25.954 0 34.276-10.013 34.276-27.082m-94.932-31.313v44.291c-3.244.563-6.77.846-11.143.846-16.08 0-23.555-9.874-23.555-25.672 0-14.387 5.783-24.543 19.606-24.543 6.065 0 11.002 1.974 15.092 5.078m15.516 54.447v-70.527H455.39l-.846 8.463c-3.95-6.206-10.015-10.155-19.888-10.155-18.62 0-31.032 13.541-31.032 37.237 0 24.826 13.26 38.93 39.353 38.93 10.156 0 18.478-1.128 26.66-3.948m-140.915-67.424c.282 5.784 1.128 9.733 2.68 14.246 7.9-3.667 18.054-5.5 25.813-5.5 13.117 0 20.452 4.231 20.452 12.553 0 8.181-5.36 11.99-18.619 17.773l-7.194 3.102c-13.259 5.784-22.286 13.26-22.286 28.212 0 16.08 11.144 26.377 33.994 26.377 9.168 0 17.772-1.27 25.812-4.09-.423-5.643-1.41-10.016-2.82-14.107-7.618 2.822-16.645 4.091-23.134 4.091-12.27 0-17.913-4.796-17.913-12.27 0-7.336 5.501-11.568 15.375-15.8l7.617-3.243c17.913-7.618 25.388-15.658 25.388-29.34 0-16.22-12.27-27.364-36.25-27.364-11.566 0-21.016 1.692-28.915 5.36m-70.898 69.54a32.536 32.536 0 0 1-4.33 14.874L229.98 278.43a32.514 32.514 0 0 0-3.719 9.846l-.983-1.7a32.584 32.584 0 0 1 0-32.582l18.811-32.582a32.586 32.586 0 0 0 0-32.58l-.983-1.703a32.533 32.533 0 0 1-3.72 9.846l-17.22 29.83-10.997 19.044a32.57 32.57 0 0 0-3.72 9.846l-.982-1.702a32.58 32.58 0 0 1-.057-32.478h-.002l18.87-32.684a32.583 32.583 0 0 0 0-32.582l-.983-1.702a32.548 32.548 0 0 1-3.72 9.847l-23.513 40.727a32.562 32.562 0 0 0-4.33 17.703c-25.173-6.576-42.547-20.54-42.547-36.708 0-22.493 33.62-40.727 75.093-40.727 41.472 0 75.092 18.234 75.092 40.727 0 16.17-17.372 30.136-42.546 36.712" fill="#fff"/></g></svg>