<svg width="64" height="32" viewBox="0 0 80 40" xmlns="http://www.w3.org/2000/svg" xmlns:xlink="http://www.w3.org/1999/xlink"><defs><path id="a" d="M0 19.955h78.467V0H0z"/></defs><g transform="translate(.74 10)" fill="none" fill-rule="evenodd"><path d="M50.858 5.321c-.003.55.444 1.05.968 1.045.469-.005 1.078-.341 1.072-1.01-.005-.607-.427-1.08-.99-1.088-.602-.009-1.046.437-1.05 1.053zm11.366-.03c-.012.552.48 1.069 1.024 1.08.51.01 1.028-.514 1.03-1.04.003-.601-.437-1.071-1.004-1.071-.58 0-1.039.45-1.05 1.031zm.084 10.629h1.9V8.134h-1.9v7.786zm-11.371 0h1.9v-7.8h-1.9v7.801zm-4.066-.007h1.93V4.005h-1.93v11.908zm13.702-7.554l-.764-.23c-1.2-.353-2.349-.285-3.436.388-2.04 1.263-2.453 4.24-1.43 5.953.641 1.073 1.648 1.65 2.884 1.66 1.008.007 1.953-.366 2.826-.875.054-.032.1-.172.074-.227-.136-.295-.297-.579-.421-.814-.49.092-.907.206-1.331.244-.703.064-1.405.066-1.943-.518-.744-.808-.797-1.732-.478-2.724.367-1.142 1.274-1.753 2.399-1.692.372.02.743.063 1.144.098l.476-1.263zm11.38 7.567c.024-.06.038-.08.038-.1-.005-1.822.024-3.644-.03-5.464-.04-1.323-.985-2.293-2.194-2.42-1.232-.13-2.357.225-3.448.734-.065.03-.139.174-.118.235.11.33.25.65.387.993.19-.065.325-.128.467-.157.629-.124 1.255-.28 1.89-.343.555-.055.964.302 1.088.846.058.258.076.525.114.802-.107.01-.191.017-.275.028-.787.103-1.588.142-2.357.323-1.544.363-2.283 1.625-1.85 3.048.417 1.367 1.997 2.27 3.675 1.174.275-.18.524-.4.813-.624l.162.925h1.639zm-27.06-.017c.005-.09.013-.153.012-.216-.011-1.778.002-3.556-.045-5.333-.028-1.025-.618-2.156-2.1-2.383-1.332-.204-2.506.273-3.71.746l.444 1.156c.233-.073.428-.129.62-.193.583-.197 1.174-.333 1.798-.29.455.031.851.287.976.71.089.3.11.62.164.952-.15.008-.245.011-.34.019-.92.073-1.847.102-2.713.474-1.17.504-1.642 1.245-1.545 2.479.086 1.086 1.232 2.117 2.218 2.072a3.175 3.175 0 0 0 1.81-.66c.176-.132.347-.271.551-.43l.172.897h1.687zm-7.894-5.895h-3.887v1.627h1.916c0 .82.007 1.59-.01 2.36-.001.089-.122.237-.206.252-1.377.253-2.702.039-3.719-1.127-.737-.845-.911-1.854-.908-2.93.008-2.22 1.957-3.816 3.86-3.745.705.026 1.408.121 2.147.188l.521-1.498c-.456-.097-.88-.206-1.312-.277-1.295-.213-2.58-.268-3.84.223-1.634.635-2.756 1.76-3.28 3.424-.329 1.045-.326 2.125-.166 3.212.36 2.44 2.392 4.259 4.87 4.37 1.35.06 2.62-.245 3.864-.71.083-.032.16-.206.16-.314.005-1.511-.005-3.022-.01-4.533v-.522zm-22.6 9.929c4.003-1.93 6.48-4.932 6.991-9.297.51-4.351-1.168-7.852-4.573-10.624h61.65v19.92H14.4z" fill="#F26822"/><path d="M36.999 10.014v.522c.005 1.51.015 3.022.01 4.533 0 .108-.077.282-.16.313-1.244.466-2.514.771-3.863.71-2.479-.11-4.511-1.93-4.87-4.369-.16-1.087-.164-2.167.165-3.212.524-1.664 1.646-2.789 3.28-3.424 1.26-.491 2.545-.436 3.84-.223.431.071.856.18 1.312.277l-.521 1.498c-.74-.067-1.442-.162-2.147-.188-1.903-.07-3.852 1.526-3.86 3.744-.003 1.077.17 2.086.908 2.931 1.017 1.166 2.342 1.38 3.719 1.127.084-.015.205-.163.206-.251.017-.77.01-1.54.01-2.36h-1.916v-1.628h3.887zm6.042 2.267c-.42.032-.795.037-1.161.093-.466.071-.931.17-1.29.515-.306.296-.423.816-.262 1.148.186.382.667.671 1.092.555.456-.125.893-.331 1.32-.54.132-.066.276-.251.288-.393.037-.442.013-.89.013-1.378m1.851 3.628h-1.687l-.172-.897c-.204.159-.375.298-.552.43-.536.4-1.12.629-1.81.66-.986.045-2.131-.986-2.217-2.072-.097-1.234.374-1.975 1.545-2.479.866-.372 1.794-.4 2.713-.474.095-.008.19-.011.34-.02-.055-.332-.075-.651-.164-.95-.125-.424-.52-.68-.976-.711-.624-.043-1.215.093-1.798.29-.192.064-.387.12-.62.193l-.445-1.156c1.205-.473 2.38-.95 3.71-.746 1.483.227 2.073 1.358 2.1 2.383.048 1.777.035 3.555.046 5.333 0 .063-.007.127-.013.216m25.254-3.634c-.377.032-.698.017-.994.094-.471.122-.952.257-1.382.478-.42.217-.509.645-.354 1.12.127.387.475.64.903.648.706.012 1.235-.376 1.753-.781.048-.038.07-.132.071-.2.006-.437.003-.875.003-1.36m1.808 3.652h-1.639L70.153 15c-.29.224-.538.444-.813.624-1.678 1.096-3.258.193-3.675-1.174-.433-1.423.306-2.685 1.85-3.048.769-.181 1.57-.22 2.357-.323.084-.01.168-.017.275-.028-.038-.277-.056-.544-.114-.802-.124-.544-.533-.9-1.088-.846-.635.063-1.261.22-1.89.343-.142.029-.278.092-.467.156-.137-.342-.277-.662-.387-.992-.02-.061.053-.204.118-.235 1.091-.51 2.216-.863 3.448-.734 1.21.127 2.155 1.097 2.194 2.42.054 1.82.025 3.642.03 5.464 0 .02-.014.04-.037.1M60.573 8.36l-.476 1.262c-.4-.035-.772-.078-1.144-.098-1.125-.061-2.032.55-2.399 1.692-.319.992-.266 1.916.478 2.724.538.584 1.24.582 1.943.518.424-.038.841-.152 1.33-.244.125.235.286.52.422.814.026.055-.02.195-.074.227-.873.51-1.818.882-2.826.874-1.236-.01-2.243-.586-2.884-1.659-1.023-1.713-.61-4.69 1.43-5.953 1.087-.673 2.236-.741 3.436-.387.243.072.486.146.764.23" fill="#FEFCF9"/><mask id="b" fill="#fff"><use xlink:href="#a"/></mask><path fill="#FEFCF9" mask="url(#b)" d="M46.87 15.913h1.93V4.005h-1.93zm4.067.007h1.9v-7.8h-1.9zm11.371 0h1.9V8.134h-1.9zm-.085-10.629a1.04 1.04 0 0 1 1.051-1.031c.567 0 1.007.47 1.005 1.07-.003.527-.521 1.05-1.03 1.04-.545-.01-1.037-.527-1.026-1.079m-11.365.03c.004-.616.448-1.062 1.05-1.053.563.007.985.48.99 1.089.006.668-.603 1.004-1.072 1.009-.524.005-.971-.494-.968-1.045"/><path d="M13.6 6.425c-.2.246-.5.319-.807.191-.79-.327-1.62-.386-2.521-.391.142 1.006.027 2.067.975 2.865l-1.2 8.641-.06.004c-.086-.56-.177-1.12-.257-1.682a1334.1 1334.1 0 0 1-.748-5.307c-.074-.53-.129-1.062-.185-1.594-.007-.064.01-.167.054-.195.392-.258.542-.662.635-1.081.118-.539.19-1.087.29-1.679-.917.018-1.741.095-2.53.405-.346.137-.657.067-.859-.198a.756.756 0 0 1-.022-.872c.186-.276.508-.375.847-.264.81.266 1.638.407 2.52.41-.008-.853-.125-1.66-.395-2.444-.165-.48-.003-.837.438-.966.45-.132.836.094.951.565a.558.558 0 0 1-.006.247c-.178.843-.36 1.685-.542 2.528l.103.104c.556-.066 1.116-.117 1.669-.204.294-.047.58-.15.866-.243.321-.104.624-.013.815.263.19.273.177.64-.032.897m6.387 2.214c-.22-1.493-.683-2.906-1.573-4.16C16.329 1.543 13.503.02 9.883.006 6.72-.006 3.557.004.393.004H0v19.95h.394c3.185 0 6.371-.002 9.556.001 3.387.004 6.114-1.394 8.142-4.03 1.638-2.128 2.29-4.6 1.894-7.286" fill="#AE2931" mask="url(#b)"/><path d="M43.041 12.281c0 .488.024.936-.013 1.378-.012.142-.156.327-.289.393-.426.209-.863.415-1.319.54-.425.116-.906-.173-1.092-.555-.161-.332-.044-.852.262-1.148.359-.346.824-.444 1.29-.515.366-.056.74-.061 1.161-.093m27.105-.006c0 .484.003.922-.003 1.36 0 .067-.023.161-.071.199-.518.405-1.047.793-1.753.78a.94.94 0 0 1-.903-.647c-.155-.475-.066-.903.354-1.12.43-.221.91-.356 1.382-.478.296-.077.617-.062.994-.094" fill="#F26822" mask="url(#b)"/></g></svg>